<?xml version="1.0" standalone="no"?><!DOCTYPE svg PUBLIC "-//W3C//DTD SVG 1.1//EN" "http://www.w3.org/Graphics/SVG/1.1/DTD/svg11.dtd"><svg t="1627732405168" class="icon" viewBox="0 0 1200 1024" version="1.1" xmlns="http://www.w3.org/2000/svg" p-id="3153" xmlns:xlink="http://www.w3.org/1999/xlink" width="234.375" height="200"><defs><style type="text/css"></style></defs><path d="M974.18 477.21c-23.16 0-45.5 3.53-66.55 10.03L825.6 335.81l84.03-170.07c1.38-2.79 2.14-5.69 2.63-8.6h70.86c17.04 0 30.86-13.82 30.86-30.86s-13.82-30.86-30.86-30.86h-212.5c-17.04 0-30.86 13.82-30.86 30.86s13.82 30.86 30.86 30.86h74.42l-73.99 149.75L383.9 308.65l29.59-93.91c1.52-4.82 1.66-9.71 0.87-14.37-0.43-4.77-1.83-9.51-4.58-13.82-8.97-14.05-21.44-25.56-36.1-33.26a94.205 94.205 0 0 0-43.58-10.74H132.69c-52.33 0-94.89 43.22-94.89 96.34 0 40.04 24.81 76.33 61.73 90.29a93.27 93.27 0 0 0 33.16 6.06c17.05 0 30.86-13.81 30.86-30.86s-13.81-30.86-30.86-30.86c-3.9 0-7.7-0.69-11.31-2.06-13.08-4.95-21.86-18.03-21.86-32.57 0-19.09 14.88-34.62 33.17-34.62H330.1c5.24 0 10.27 1.24 14.88 3.66 1.76 0.92 3.29 2.21 4.86 3.44l-84.91 269.47c-12.73-2.24-25.76-3.63-39.12-3.63-124.51 0-225.81 101.3-225.81 225.81 0 124.52 101.3 225.82 225.82 225.82 124.51 0 225.81-101.3 225.81-225.82 0-89.42-52.38-166.64-127.96-203.19l25.53-81.02 217.1 270.82c8.74 10.88 21.2 17.8 35.12 19.49l148.26 17.83c11.99 113.3 108.08 201.89 224.51 201.89 124.52 0 225.82-101.3 225.82-225.82-0.01-124.51-101.31-225.81-225.83-225.81zM389.9 703.02c0 90.48-73.6 164.1-164.09 164.1s-164.1-73.61-164.1-164.1 73.61-164.09 164.1-164.09c6.91 0 13.68 0.57 20.37 1.4l-43.6 138.39c-5.12 16.26 3.9 33.59 20.16 38.71 16.26 5.12 33.59-3.9 38.71-20.16l43.46-137.93C355.53 587.31 389.9 641.21 389.9 703.02z m461.81-189.44c-51.94 33.7-89.08 88.09-99.88 151.45l-83.91-10.09 124.2-251.36 59.59 110z m29.47 54.4l65.26 120.46-133.38-16.04c8.19-43.14 33.26-80.33 68.12-104.42zM389.46 370.35l351.03-1.61-134.35 271.9-216.68-270.29z m584.72 496.76c-79.68 0-146.21-57.11-160.97-132.53l142.61 17.15c2.16 0.26 4.32 0.39 6.46 0.39 17.5 0 33.9-8.56 43.89-23.25 11.11-16.34 12.17-37.29 2.75-54.67L937.9 543.11c11.69-2.65 23.8-4.18 36.28-4.18 90.48 0 164.1 73.6 164.1 164.09s-73.62 164.09-164.1 164.09z" fill="#ffffff" p-id="3154"></path></svg>