<svg t="1586159465455" class="icon" viewBox="0 0 1024 1024" version="1.1" xmlns="http://www.w3.org/2000/svg" p-id="8212" width="200" height="200"><path d="M406.753981 164.992775c6.120394-41.7468 39.919175-78.012771 82.214467-83.767845 48.323589-9.865695 102.859669 18.635429 116.287493 67.415412 19.091824 55.723116-5.024433 115.00836-39.006386 159.495574-10.779507 11.510148-6.759961 27.496238-7.034207 41.655725 57.093323 21.010523 133.187395 55.44887 125.148301 129.167848 19.457144-11.235902 47.77612-15.620769 56.17951-39.280632 0.548492-18.270109-14.159488-31.515784-22.74605-46.131667-33.160237-47.77612-45.857421-117.110231-11.601222-167.625742 38.73214-57.823963 139.307789-53.073776 171.736363 8.860808 25.577538 45.674249 15.346523 102.129029-8.860808 145.976676-11.235902 21.284769-35.626405 39.645952-29.049616 66.410526 2.831488 11.875468 16.807804 13.885242 25.851784 19.091824 36.0828 14.706957 74.540693 36.173874 89.339748 74.449619 7.125281 38.915311 1.826602 78.92556 3.196809 118.297266-1.188058 53.713342 8.67866 113.181759-24.572652 159.860894-54.627155 80.204693-151.000086 117.384477-241.34472 141.134391-0.36532-31.697933 4.750187-67.14219-15.895015-94.089935-26.491351-35.991726-70.155826-52.708456-110.258173-68.603471-1.735527-27.313066 19.822464-46.222741 31.515784-68.603471 24.846898-47.136553 34.073026-108.340497 4.110621-155.477051-36.540218-58.919924-129.898489-65.132416-176.304402-14.706957-36.996612 40.558741-36.265972 101.762685-16.534582 150.269445 8.221242 31.606859 42.751686 52.891627 39.645952 87.513146-39.553854 16.260335-81.483826 34.621519-107.700931 70.155826-20.554128 26.491351-12.149714 62.392002-13.976316 93.359294-80.478939-18.544355-161.688519-50.698682-220.88269-110.258173-27.678386-29.231765-48.414663-67.50751-48.232514-108.705817-0.548492-57.823963-0.183172-115.831099-0.183172-173.655062-2.831488-36.81344 25.851784-65.22349 54.901401-82.854033 19.182898-12.515035 42.933835-17.08205 60.929698-31.332612 9.591449-17.539468-0.821715-36.722366-12.057617-50.516534-35.352159-46.679136-53.073776-114.551966-23.11137-168.357406 33.06814-61.660338 133.735887-65.863057 172.010609-7.490601 33.43346 50.698682 20.827351 119.393227-12.331863 166.986175-8.495488 14.524808-23.020296 27.587312-22.74605 45.674249 8.769734 25.121144 39.46278 29.048593 60.016909 40.832987-7.946996-49.41955 27.678386-89.979314 70.795393-108.157325 20.827351-12.423961 61.660338-19.000749 50.972928-52.160987C425.480484 275.159874 394.878512 222.086098 406.753981 164.992775z" p-id="8213"></path></svg>
