<svg t="1586159087518" class="icon" viewBox="0 0 1024 1024" version="1.1" xmlns="http://www.w3.org/2000/svg" p-id="2355" width="200" height="200"><path d="M98.752 671.616H336.64l16.96 16.96a224 224 0 0 0 316.8 0l16.96-16.96h207.552V864a96 96 0 0 1-96 96h-604.16a96 96 0 0 1-96-96v-192.384zM798.912 64a96 96 0 0 1 96 96v447.616h-234.048l-35.712 35.712a160 160 0 0 1-226.304 0l-35.712-35.712h-264.32V160a96 96 0 0 1 96-96h604.096z m-343.68 320H273.088a41.6 41.6 0 0 0-6.144 82.752l6.144 0.448h182.144a41.6 41.6 0 1 0 0-83.2z m99.52-192H273.088a41.6 41.6 0 0 0-6.144 82.752l6.144 0.448h281.664a41.6 41.6 0 1 0 0-83.2z" p-id="2356"></path></svg>
