<svg t="1586332848058" class="icon" viewBox="0 0 1024 1024" version="1.1" xmlns="http://www.w3.org/2000/svg" p-id="2520" width="200" height="200"><path d="M227.187 573.394c37.557 68.766 104.48 128.768 172.428 163.376-97.313 50.91-232.389 132.168-297.182 219.529 109.559 41.202 246.56 66.227 395.642 67.701h27.81c149.082-1.474 286.123-26.499 395.682-67.701-64.957-87.607-200.565-169.07-297.96-219.938 67.415-34.854 133.929-95.02 171.814-162.598 41.284-11.386 71.51-48.124 71.51-91.661 0-31.25-15.605-58.978-39.728-76.385-2.212-134.665-24.574-313.523-236.28-357.961C607.88 31.373 631.513 0.082 631.513 0.082 529.407 1.106 458.1 17.693 393.02 39.072c-178.572 60.617-195.2 233.454-196.51 366.81a94.119 94.119 0 0 0-39.442 76.179c0 43.127 29.57 79.538 70.118 91.333z" p-id="2521"></path></svg>
