<svg t="1586332905931" class="icon" viewBox="0 0 1024 1024" version="1.1" xmlns="http://www.w3.org/2000/svg" p-id="3259" width="200" height="200"><path d="M687.917949 971.487179H309.825641c-31.507692 0-55.138462-23.630769-55.138462-55.138461v-147.035897h488.369231v147.035897c0 31.507692-23.630769 55.138462-55.138461 55.138461zM254.687179 724.676923h488.369231V165.415385H254.687179v559.261538zM309.825641 44.635897h378.092308c31.507692 0 55.138462 23.630769 55.138461 55.138462v21.005128H254.687179v-21.005128c0-31.507692 23.630769-55.138462 55.138462-55.138462zM687.917949 0H309.825641C254.687179 0 210.051282 44.635897 210.051282 99.774359v816.574359c0 55.138462 44.635897 99.774359 99.774359 99.774359h378.092308c55.138462 0 99.774359-44.635897 99.774359-99.774359V99.774359C787.692308 44.635897 743.05641 0 687.917949 0z" p-id="3260"></path><path d="M498.871795 824.451282c-26.25641 0-49.887179 21.005128-49.88718 49.88718s21.005128 49.887179 49.88718 49.887179 49.887179-21.005128 49.887179-49.887179-23.630769-49.887179-49.887179-49.88718M506.748718 462.112821c36.758974 0 55.138462 15.753846 57.764103 49.887179 0 18.379487-2.625641 31.507692-10.502565 42.010256-10.502564 10.502564-28.882051 18.379487-55.138461 18.379488-36.758974 0-60.389744-15.753846-65.641026-44.635898-2.625641-13.128205-13.128205-21.005128-26.25641-18.379487-13.128205 2.625641-21.005128 13.128205-18.379487 26.25641 7.876923 44.635897 42.010256 73.517949 86.646154 81.394872v47.261538c0 13.128205 10.502564 21.005128 21.005128 21.005129 13.128205 0 21.005128-10.502564 21.005128-21.005129v-47.261538c28.882051-2.625641 49.887179-13.128205 65.641026-28.882051 18.379487-18.379487 26.25641-44.635897 23.630769-76.14359-2.625641-57.764103-42.010256-89.271795-99.774359-89.271795-68.266667 0-73.517949-28.882051-73.517949-39.384615-2.625641-13.128205-2.625641-28.882051 7.876923-42.010257 13.128205-13.128205 34.133333-15.753846 49.88718-15.753846 26.25641 0 44.635897 5.251282 55.138461 15.753846 2.625641 2.625641 5.251282 7.876923 7.876923 10.502564 5.251282 7.876923 13.128205 15.753846 21.005129 15.753847 15.753846 0 26.25641-13.128205 21.005128-28.882052-2.625641-7.876923-7.876923-18.379487-18.379487-28.882051-15.753846-15.753846-34.133333-26.25641-60.389744-28.882051v-52.512821c0-13.128205-10.502564-21.005128-21.005128-21.005128-13.128205 0-21.005128 10.502564-21.005128 21.005128v47.261539c-36.758974 2.625641-57.764103 18.379487-68.266667 31.507692-15.753846 18.379487-23.630769 47.261538-18.379487 76.14359 10.502564 65.641026 70.892308 78.769231 118.153846 78.769231" p-id="3261"></path></svg>
