<svg t="1586159533184" class="icon" viewBox="0 0 1024 1024" version="1.1" xmlns="http://www.w3.org/2000/svg" p-id="10097" width="200" height="200"><path d="M1021.67705 220.021837l-117.629035 383.977658-0.062057 0.2172c-7.415811 21.006293-24.853827 34.038262-45.580863 34.038262H376.718698l-35.000145 56.068495h555.223936c26.777593 0 48.621656 21.564806 49.056055 48.249314 0.465427 27.491249-22.588746 49.98691-50.048966 49.98691H251.425625a49.180169 49.180169 0 0 1-49.087083-49.149141c0-13.062998 5.554101-25.939824 14.893678-34.782946l57.899177-92.682122a49.335311 49.335311 0 0 1-5.771301-11.914943l-0.155142-0.496456L148.783355 167.676762l-19.951324-69.410749H50.081704c-27.46022 0-50.514394-22.495661-50.048967-49.955882A49.14914 49.14914 0 0 1 49.088792 0.029789h121.104226c18.555042 0 34.90706 12.318314 40.026762 30.1597l35.651744 124.11399h730.06952c14.986764 0 28.794446 7.105526 37.885796 19.42384 9.773977 13.21814 12.690656 30.532042 7.85021 46.294518zM274.883169 252.539703l78.998555 287.47903H820.736499l87.965791-287.47903H274.883169z m43.99841 596.057439a87.748591 87.748591 0 0 1 87.593448 87.686535A87.748591 87.748591 0 0 1 318.881579 1023.970211a87.748591 87.748591 0 0 1-87.624478-87.686534 87.748591 87.748591 0 0 1 87.624478-87.686535z m539.523516 0a87.748591 87.748591 0 0 1 87.624478 87.686535A87.748591 87.748591 0 0 1 858.405095 1023.970211a87.748591 87.748591 0 0 1-87.624477-87.686534 87.748591 87.748591 0 0 1 87.624477-87.686535z" p-id="10098"></path></svg>
