<?xml version="1.0" standalone="no"?><!DOCTYPE svg PUBLIC "-//W3C//DTD SVG 1.1//EN" "http://www.w3.org/Graphics/SVG/1.1/DTD/svg11.dtd"><svg t="1627732334252" class="icon" viewBox="0 0 1024 1024" version="1.1" xmlns="http://www.w3.org/2000/svg" p-id="827" xmlns:xlink="http://www.w3.org/1999/xlink" width="200" height="200"><defs><style type="text/css"></style></defs><path d="M746.666667 906.666667H277.333333c-40.533333 0-74.666667-34.133333-74.666666-76.8V172.8c0-42.666667 34.133333-76.8 74.666666-76.8h341.333334l204.8 204.8v529.066667c-2.133333 42.666667-36.266667 76.8-76.8 76.8z m-469.333334-768c-17.066667 0-32 14.933333-32 34.133333v657.066667c0 19.2 14.933333 34.133333 32 34.133333h469.333334c17.066667 0 32-14.933333 32-34.133333v-512l-179.2-179.2H277.333333z" p-id="828" fill="#ffffff"></path><path d="M800 330.666667h-164.266667c-27.733333 0-49.066667-23.466667-49.066666-53.333334V117.333333h42.666666V277.333333c0 6.4 4.266667 10.666667 6.4 10.666667h164.266667v42.666667zM680.533333 518.4H554.666667c-12.8 0-21.333333-8.533333-21.333334-21.333333s8.533333-21.333333 21.333334-21.333334h125.866666c12.8 0 21.333333 8.533333 21.333334 21.333334s-10.666667 21.333333-21.333334 21.333333zM680.533333 646.4H343.466667c-12.8 0-21.333333-8.533333-21.333334-21.333333s8.533333-21.333333 21.333334-21.333334h337.066666c12.8 0 21.333333 8.533333 21.333334 21.333334s-10.666667 21.333333-21.333334 21.333333zM680.533333 774.4H343.466667c-12.8 0-21.333333-8.533333-21.333334-21.333333s8.533333-21.333333 21.333334-21.333334h337.066666c12.8 0 21.333333 8.533333 21.333334 21.333334s-10.666667 21.333333-21.333334 21.333333zM405.333333 373.333333c-6.4 0-10.666667-2.133333-14.933333-6.4l-64-64c-8.533333-8.533333-8.533333-21.333333 0-29.866666s21.333333-8.533333 29.866667 0l64 64c8.533333 8.533333 8.533333 21.333333 0 29.866666-4.266667 4.266667-8.533333 6.4-14.933334 6.4z" p-id="829" fill="#ffffff"></path><path d="M405.333333 373.333333c-6.4 0-10.666667-2.133333-14.933333-6.4-8.533333-8.533333-8.533333-21.333333 0-29.866666l64-64c8.533333-8.533333 21.333333-8.533333 29.866667 0s8.533333 21.333333 0 29.866666l-64 64c-4.266667 4.266667-8.533333 6.4-14.933334 6.4z" p-id="830" fill="#ffffff"></path><path d="M480 394.666667h-149.333333c-12.8 0-21.333333-8.533333-21.333334-21.333334s8.533333-21.333333 21.333334-21.333333h149.333333c12.8 0 21.333333 8.533333 21.333333 21.333333s-8.533333 21.333333-21.333333 21.333334zM480 469.333333h-149.333333c-12.8 0-21.333333-8.533333-21.333334-21.333333s8.533333-21.333333 21.333334-21.333333h149.333333c12.8 0 21.333333 8.533333 21.333333 21.333333s-8.533333 21.333333-21.333333 21.333333z" p-id="831" fill="#ffffff"></path><path d="M405.333333 544c-12.8 0-21.333333-8.533333-21.333333-21.333333V362.666667c0-12.8 8.533333-21.333333 21.333333-21.333334s21.333333 8.533333 21.333334 21.333334v160c0 12.8-8.533333 21.333333-21.333334 21.333333z" p-id="832" fill="#ffffff"></path></svg>