<svg t="1586159421025" class="icon" viewBox="0 0 1024 1024" version="1.1" xmlns="http://www.w3.org/2000/svg" p-id="7482" width="200" height="200"><path d="M0 0v1024h1024V0H0z m712.395699 187.182796l64.963441 198.744086c3.853763 12.111828 1.101075 30.27957-6.055914 40.739785l-274.167742 391.432258c-10.460215 14.864516-30.830108 18.167742-45.144086 7.707527l-250.494624-175.621506c-14.864516-10.460215-18.167742-30.830108-8.258064-45.144086l274.167742-391.432258c7.156989-10.460215 23.673118-19.268817 36.335483-19.819355l208.653764-6.606451z m-160.514753 143.569204c-8.395699 0.330323-16.901505 2.317763-25.021935 6.171527-31.380645 13.763441-46.245161 52.301075-30.27957 84.782796 13.763441 31.380645 52.301075 46.245161 84.782796 30.830107 31.380645-13.763441 44.593548-53.39114 30.279569-84.771785-10.317075-23.948387-34.573763-37.992602-59.76086-37.012645z" p-id="7483"></path></svg>
