<svg t="1586332974355" class="icon" viewBox="0 0 1025 1024" version="1.1" xmlns="http://www.w3.org/2000/svg" p-id="4909" width="200" height="200"><path d="M903.771384 0H121.521694A121.891436 121.891436 0 0 0 0 121.521694v513.077905a121.860624 121.860624 0 0 0 121.521694 121.521694h782.126443a121.860624 121.860624 0 0 0 121.521694-121.521694V121.521694A121.891436 121.891436 0 0 0 903.771384 0zM258.480095 557.44688A58.942952 58.942952 0 0 1 199.691202 616.235773a58.973763 58.973763 0 0 1-58.788893-58.788893v-237.774573a58.973763 58.973763 0 0 1 58.788893-58.788893 58.942952 58.942952 0 0 1 58.788893 58.788893z m312.400725 0A58.942952 58.942952 0 0 1 512.091927 616.235773a58.942952 58.942952 0 0 1-58.758081-58.788893V174.363912a58.91214 58.91214 0 0 1 58.758081-58.758081 58.942952 58.942952 0 0 1 58.788893 58.758081z m312.400725 0A58.942952 58.942952 0 0 1 824.492652 616.235773a58.942952 58.942952 0 0 1-58.758081-58.788893v-237.774573a58.942952 58.942952 0 0 1 58.758081-58.788893 58.942952 58.942952 0 0 1 58.788893 58.788893zM298.781914 969.893482h-135.263752a27.114374 27.114374 0 0 0-26.775444 29.702565 27.484115 27.484115 0 0 0 27.545739 24.402936h700.043838a27.083562 27.083562 0 0 0 1.355718-54.105501h-135.263752V756.121293h-431.365041z" fill="#333333" p-id="4910"></path></svg>
