<svg t="1586332792761" class="icon" viewBox="0 0 1024 1024" version="1.1" xmlns="http://www.w3.org/2000/svg" p-id="1797" width="200" height="200"><path d="M822.19008 196.68992h-213.33504c-17.06496 0-32 14.93504-32 32s14.93504 32 32 32h213.33504c29.86496 0 53.33504 23.46496 53.33504 53.33504v384c0 29.86496-23.47008 53.32992-53.33504 53.32992h-64v42.67008c0 6.4-2.13504 14.92992-4.26496 21.32992h68.26496c64 0 117.33504-53.32992 117.33504-117.32992v-384c0-64-53.33504-117.33504-117.33504-117.33504z" p-id="1798"></path><path d="M779.51488 367.34976h-170.66496c-4.26496 0-6.4 0-8.53504 2.13504 0 19.2-4.26496 38.4-10.66496 55.46496 4.26496 4.26496 10.66496 6.4 19.2 6.4h170.66496c17.07008 0 32-14.93504 32-32s-14.92992-32-32-32z" p-id="1799"></path><path d="M508.58496 488.96C542.72 456.96 561.92 414.29504 561.92 365.22496 561.92 271.36 485.12 194.56 391.25504 194.56c-93.87008 0-170.67008 76.8-170.67008 170.66496 0 51.2 21.33504 96 57.6 128C165.12 518.82496 81.92 616.96 81.92 734.29504v64c0 17.06496 14.93504 32 32 32s32-14.93504 32-32v-64c0-102.4 83.2-183.47008 187.73504-183.47008h136.52992c102.4 0 187.73504 83.2 187.73504 183.47008v64c0 17.06496 14.93504 32 32 32s32-14.93504 32-32v-64c0-125.87008-91.73504-228.27008-213.33504-245.33504z m-115.2-232.53504c59.73504 0 106.67008 46.93504 106.67008 106.67008 0 59.72992-46.93504 106.66496-106.67008 106.66496C333.65504 469.76 286.72 422.82496 286.72 363.09504c0-59.73504 46.93504-106.67008 106.66496-106.67008zM779.52512 516.68992h-113.06496c21.33504 19.2 38.4 40.53504 53.33504 64h59.72992c17.07008 0 32-14.93504 32-32s-14.92992-32-32-32z" p-id="1800"></path></svg>
